# xmcd
#
# Track frame offsets:
#	150
#	13124
#	24402
#	37106
#	50551
#	63265
#	74615
#	87250
#	98920
#	111309
#	122973
#	133185
#	146202
#	158900
#	172174
#	186424
#	196005
#	209581
#	221811
#	234158
#	246180
#	257428
#	270095
#	283187
#	296295
#	312014
#	324234
#	338035
#
# Disc length: 4674 seconds
#
# Revision: 1
# Processed by: cddbd v1.5.2PL0 Copyright (c) Steve Scherf et al.
# Submitted via: audiograbber 1.83.01
#
DISCID=ac12401c
DTITLE=Various Artist - Stax Singles [CD 8)
DYEAR=1900
DGENRE=
TTITLE0=Various Artist - Mad Lads \\ My Inspiration
TTITLE1=Various Artist - Sir Mack Rice \\ Love Sickness
TTITLE2=Various Artist - Rufus Thomas \\ Sophisticated Sissy
TTITLE3=Various Artist - Carla Thomas \\ I'll Always Have Faith In You
TTITLE4=Various Artist - Jeanne and The Darlings \\ How Can You Mistreat The One You Lov
TTITLE4=e
TTITLE5=Various Artist - Eddie Floyd \\ Love Is Doggone Good Thing
TTITLE6=Various Artist - Booker T. and The MG's \\ Groovin'
TTITLE7=Various Artist - Booker T. and The MG's \\ Slim Jenkin's Place
TTITLE8=Various Artist - Otis Redding \\ Glory Of Love
TTITLE9=Various Artist - Mable John \\ I'm A Big Girl Now
TTITLE10=Various Artist - Mable John \\ Wait You Dog
TTITLE11=Various Artist - Johnnie Taylor \\ You Can't Get Away From It
TTITLE12=Various Artist - William Bell \\ Eloise (Hang On In There)
TTITLE13=Various Artist - Otis and Carla \\ Knock On Wood
TTITLE14=Various Artist - C.L. Blast \\ I'm Glad To Do It
TTITLE15=Various Artist - C.L. Blast \\ Double Up
TTITLE16=Various Artist - Judy Clay \\ You Can't Run Away From Your Heart
TTITLE17=Various Artist - Charmels \\ I'll Gladly Take You Back
TTITLE18=Various Artist - Sam and Dave \\ Soul Man
TTITLE19=Various Artist - Astors \\ Daddy Didn't Tell Me
TTITLE20=Various Artist - Bar-Kays \\ Give Everybody Some
TTITLE21=Various Artist - Eddie Floyd \\ On A Saturday Night
TTITLE22=Various Artist - Mable John \\ Don't Hit Me No More
TTITLE23=Various Artist - Johnnie Taylor \\ Somebody's Sleeping In My Bed
TTITLE24=Various Artist - Booker T. and The MG's \\ Winter Snow
TTITLE25=Various Artist - William Bell \\ Everyday Will Be Like A Holiday
TTITLE26=Various Artist - Johnny Daye \\ What'll I Do For Satisfaction
TTITLE27=Various Artist - Carla Thomas \\ Pick Up The Pieces
EXTD=
EXTT0=
EXTT1=
EXTT2=
EXTT3=
EXTT4=
EXTT5=
EXTT6=
EXTT7=
EXTT8=
EXTT9=
EXTT10=
EXTT11=
EXTT12=
EXTT13=
EXTT14=
EXTT15=
EXTT16=
EXTT17=
EXTT18=
EXTT19=
EXTT20=
EXTT21=
EXTT22=
EXTT23=
EXTT24=
EXTT25=
EXTT26=
EXTT27=
PLAYORDER=
